<?xml version="1.0" encoding="UTF-8"?>
<!DOCTYPE svg PUBLIC "-//W3C//DTD SVG 1.1//EN" "http://www.w3.org/Graphics/SVG/1.1/DTD/svg11.dtd">
<!-- Creator: CorelDRAW 2020 (64 Bit) -->
<svg xmlns="http://www.w3.org/2000/svg" xml:space="preserve" width="280.247mm" height="280.248mm" version="1.1" style="shape-rendering:geometricPrecision; text-rendering:geometricPrecision; image-rendering:optimizeQuality; fill-rule:evenodd; clip-rule:evenodd"
viewBox="0 0 28024.74 28024.78"
 xmlns:xlink="http://www.w3.org/1999/xlink"
 xmlns:xodm="http://www.corel.com/coreldraw/odm/2003">
 <defs>
  <style type="text/css">
   <![CDATA[
    .fil1 {fill:#FEFEFE}
    .fil0 {fill:url(#id0)}
   ]]>
  </style>
  <linearGradient id="id0" gradientUnits="userSpaceOnUse" x1="-6871.71" y1="33927.24" x2="30885.39" y2="-6084.88">
   <stop offset="0" style="stop-opacity:1; stop-color:#773DEA"/>
   <stop offset="0.501961" style="stop-opacity:1; stop-color:#0691CF"/>
   <stop offset="1" style="stop-opacity:1; stop-color:#00BF8B"/>
  </linearGradient>
 </defs>
 <g id="Camada_x0020_1">
  <metadata id="CorelCorpID_0Corel-Layer"/>
  <path class="fil0" d="M14012.37 0c7738.8,0 14012.37,6273.58 14012.37,14012.39 0,7738.81 -6273.57,14012.39 -14012.37,14012.39 -7738.8,0 -14012.37,-6273.58 -14012.37,-14012.39 0,-7738.81 6273.57,-14012.39 14012.37,-14012.39z"/>
  <g id="_2134528041952">
   <path class="fil1" d="M7717.93 9893.85c0.35,-351.32 -70.4,-495.12 -347.35,-603.88 -771.64,-302.92 -2226.18,405.22 -2832.41,855.65 630.23,-90.65 1459.04,3.27 1512.89,619.37 46.66,533.39 8.56,1238.47 8.56,1790.28 0,1205.66 0.52,2623.72 0,3829.37 293.97,0.27 587.9,-0.21 881.92,0.09 965.45,0.83 776.39,-585.5 776.39,-2117.51 0,-1199.02 0.87,-2398.13 -1.7,-3597.11 353.85,-164.84 1362.11,-521.04 1874.42,-524.01 715.99,-4.15 1190.6,489.44 1258.95,1164.11 4.88,532.82 -9.3,4602.79 -6.81,5074.35 296.11,0 592.44,-0.13 888.55,0.17 968.16,0.83 769.67,-580.09 769.67,-2144.22 0,-774.12 33.04,-2954.22 -39.63,-3571.45 540.38,-259.15 849.45,-363.14 1596.47,-496.78 682.61,-122.11 1183.19,180.16 1400.17,637.83 236.5,498.79 161.87,2676.18 161.57,3448.95 500.92,-699.67 1065.69,-1397.55 1588.04,-2054.5l58.05 -73.88c7.94,-705.96 38.58,-1484.79 -223.32,-2049.87 -341.28,-736.5 -1207.36,-1106.85 -2284.88,-920.15 -1219.4,211.18 -2263.45,773.47 -2517.71,824.4 -62.19,-77.9 -101.64,-145.37 -153.75,-218.12 -410.15,-573.94 -1298.57,-727.47 -2000.77,-624.57 -594.14,87.16 -1258.51,311.35 -1803.77,526.94 -172.87,68.34 -394.88,182.6 -563.55,224.54z"/>
   <path class="fil1" d="M16434.78 15410.42c148.6,-412.63 3521.39,-4685.41 3593.44,-4743.02l-7.46 4743.15 -3585.98 -0.13zm3593.14 3516.02l1546.06 -839.01 15.54 -1697.42c548.75,-21.69 1299.18,-2.27 1895.98,-2.79l-0.26 -976.58 -1896.07 -4.98c-25.93,-733.49 -3.45,-1909.51 -6.94,-2690.35 59.05,-466.19 21.38,-2804.36 16.41,-3547.84l-448.12 -9.47c-561.32,-5.98 -678.24,-67.08 -868.26,148.08l-2275.28 2898.48c-604.79,760.73 -1271.47,1583.16 -1823.49,2390.58 -239.34,332.34 -370.53,515.42 -459.08,656.64 -34.82,55.52 -70.39,103.43 -87.8,156.77 -11.52,35.21 -19.12,43.07 -18.99,78.86 0.57,149.95 2.97,364.63 1.57,898.8l4403.36 -0.39 5.37 2540.62z"/>
  </g>
 </g>
</svg>
